<?xml version="1.0" encoding="UTF-8" standalone="no" ?>
<!DOCTYPE svg PUBLIC "-//W3C//DTD SVG 1.1//EN" "http://www.w3.org/Graphics/SVG/1.1/DTD/svg11.dtd">
<svg xmlns="http://www.w3.org/2000/svg" xmlns:xlink="http://www.w3.org/1999/xlink" version="1.1" width="1280" height="1024" viewBox="0 0 1280 1024" xml:space="preserve">
<desc>Created with Fabric.js 3.6.3</desc>
<defs>
</defs>
<g transform="matrix(1.9692780337941629 0 0 1.9692780337941629 640.0153846153846 512.012312418764)" id="background-logo"  >
<rect style="stroke: none; stroke-width: 1; stroke-dasharray: none; stroke-linecap: butt; stroke-dashoffset: 0; stroke-linejoin: miter; stroke-miterlimit: 4; fill: transparent; fill-rule: nonzero; opacity: 1;"  paint-order="stroke"  x="-325" y="-260" rx="0" ry="0" width="650" height="520" />
</g>
<g transform="matrix(1.9692780337941629 0 0 1.9692780337941629 640.0153846153846 419.1830526904326)" id="logo-logo"  >
<g style=""  paint-order="stroke"   >
		<g transform="matrix(0.19234653032529422 0 0 -0.19234653032529422 0 0)"  >
<path fill="rgb(44,56,146)" style="stroke: none; stroke-width: 1; stroke-dasharray: none; stroke-linecap: butt; stroke-dashoffset: 0; stroke-linejoin: miter; stroke-miterlimit: 4;  fill-rule: nonzero; opacity: 1;"  paint-order="stroke"  transform=" translate(-1625.0036187943597, -1300.0019856378353)" d="m 1262.51 1376.85 c 5.49 3.28 11.9 5.17 18.76 5.17 c 20.22 0 36.62 -16.4 36.62 -36.63 V 912.473 c 0 -20.223 -16.4 -36.625 -36.62 -36.625 c -20.23 0 -36.63 16.402 -36.63 36.625 v 373.607 l -95.3 -47.92 c -5.49 -3.28 -11.9 -5.18 -18.75 -5.18 c -20.23 0 -36.63 16.41 -36.63 36.63 v 277.67 c 0 15.26 9.33 28.35 22.61 33.85 l 964.45 485.04 c 18.02 9.09 39.99 1.85 49.07 -16.17 c 5.04 -9.97 5.05 -21.16 1.02 -30.69 l -121.24 -335.59 c -2.79 -9.26 -9.22 -17.42 -18.54 -22.11 l -512.81 -257.9 v -212.23 l 624.53 314.09 c 18.02 9.09 39.99 1.84 49.08 -16.16 c 5.03 -9.98 5.05 -21.16 1.01 -30.7 l -109.79 -303.9 c -2.79 -9.26 -9.22 -17.41 -18.54 -22.11 L 1730.3 984.586 V 566.535 c 0 -20.222 -16.4 -36.625 -36.62 -36.625 c -9.22 0 -17.65 3.414 -24.09 9.031 l -210.53 156.442 c -10.32 6.48 -17.19 17.957 -17.19 31.043 v 255.062 c 0 20.222 16.4 36.632 36.63 36.632 c 20.22 0 36.63 -16.41 36.63 -36.632 V 744.699 l 141.92 -105.457 v 367.828 c 0 15.3 9.4 28.41 22.72 33.89 l 299.25 150.5 l 75.03 207.68 l -593.39 -298.43 c -5.5 -3.28 -11.91 -5.17 -18.76 -5.17 c -20.22 0 -36.63 16.4 -36.63 36.63 v 294.01 c 0 15.25 9.34 28.34 22.61 33.84 l 517.66 260.35 l 86.49 239.37 l -864.82 -434.93 v -195.88 l 95.3 47.92" stroke-linecap="round" />
</g>
</g>
</g>
<g transform="matrix(1.9692780337941629 0 0 1.9692780337941629 640.0500008308225 810.9437982744089)" id="text-logo-path"  >
<path fill="rgb(44,56,146)" style="stroke: none; stroke-width: 0; stroke-dasharray: none; stroke-linecap: butt; stroke-dashoffset: 0; stroke-linejoin: miter; stroke-miterlimit: 4;  fill-rule: nonzero; opacity: 1;"  paint-order="stroke"  transform=" translate(-152.805, 25.205)" d="M 13.04 0 L 1.44 0 L 1.44 -34.91 Q 1.44 -38.14 2.67 -40.96 Q 3.9 -43.77 5.98 -45.86 Q 8.05 -47.95 10.86 -49.18 Q 13.68 -50.41 16.91 -50.41 L 16.91 -50.41 L 40.18 -50.41 L 40.18 -38.74 L 16.91 -38.74 Q 15.26 -38.74 14.15 -37.62 Q 13.04 -36.49 13.04 -34.91 L 13.04 -34.91 L 13.04 -31.04 L 40.18 -31.04 L 40.18 -19.37 L 13.04 -19.37 L 13.04 0 Z M 54.63 0 L 43.03 0 L 56.5 -50.41 L 56.64 -50.41 L 68.17 -50.41 L 68.31 -50.41 L 81.77 0 L 70.17 0 L 62.4 -28.93 L 54.63 0 Z M 96.22 0 L 84.62 0 L 84.62 -50.41 L 96.22 -50.41 L 107.86 -50.41 Q 111.09 -50.41 113.91 -49.18 Q 116.72 -47.95 118.81 -45.86 Q 120.9 -43.77 122.13 -40.96 Q 123.36 -38.14 123.36 -34.91 L 123.36 -34.91 L 123.36 -15.47 Q 123.36 -12.23 122.13 -9.42 Q 120.9 -6.61 118.81 -4.54 Q 116.72 -2.46 113.92 -1.23 Q 111.13 0 107.86 0 L 107.86 0 L 96.22 0 Z M 96.22 -38.74 L 96.22 -11.6 L 107.86 -11.6 Q 109.51 -11.6 110.64 -12.74 Q 111.76 -13.89 111.76 -15.47 L 111.76 -15.47 L 111.76 -34.91 Q 111.76 -36.49 110.65 -37.62 Q 109.55 -38.74 107.86 -38.74 L 107.86 -38.74 L 96.22 -38.74 Z M 139.68 0 L 126.21 -50.41 L 137.81 -50.41 L 145.58 -21.45 L 153.35 -50.41 L 164.95 -50.41 L 151.49 0 L 151.35 0 L 139.82 0 L 139.68 0 Z M 179.4 0 L 167.8 0 L 167.8 -50.41 L 179.4 -50.41 L 179.4 0 Z M 205.49 0 L 182.25 0 L 182.25 -11.6 L 205.49 -11.6 Q 207.14 -11.67 208.27 -12.78 Q 209.39 -13.89 209.39 -15.47 L 209.39 -15.47 Q 209.39 -17.12 208.28 -18.25 Q 207.18 -19.37 205.49 -19.37 L 205.49 -19.37 L 197.72 -19.37 Q 194.48 -19.37 191.67 -20.6 Q 188.86 -21.83 186.79 -23.94 Q 184.71 -26.05 183.48 -28.86 Q 182.25 -31.68 182.25 -34.91 L 182.25 -34.91 Q 182.25 -38.14 183.48 -40.96 Q 184.71 -43.77 186.79 -45.86 Q 188.86 -47.95 191.67 -49.18 Q 194.48 -50.41 197.72 -50.41 L 197.72 -50.41 L 213.22 -50.41 L 213.22 -38.74 L 197.72 -38.74 Q 196.07 -38.74 194.96 -37.62 Q 193.85 -36.49 193.85 -34.91 L 193.85 -34.91 Q 193.85 -33.26 194.96 -32.15 Q 196.07 -31.04 197.72 -31.04 L 197.72 -31.04 L 205.49 -31.04 Q 208.72 -31.04 211.54 -29.81 Q 214.35 -28.58 216.44 -26.46 Q 218.53 -24.33 219.76 -21.52 Q 220.99 -18.7 220.99 -15.47 L 220.99 -15.47 Q 220.99 -12.23 219.76 -9.42 Q 218.53 -6.61 216.44 -4.54 Q 214.35 -2.46 211.55 -1.23 Q 208.76 0 205.49 0 L 205.49 0 Z M 223.84 -15.47 L 223.84 -15.47 L 223.84 -34.91 Q 223.84 -38.14 225.07 -40.96 Q 226.3 -43.77 228.38 -45.86 Q 230.45 -47.95 233.26 -49.18 Q 236.07 -50.41 239.31 -50.41 L 239.31 -50.41 L 262.58 -50.41 L 262.58 -38.74 L 239.31 -38.74 Q 237.66 -38.74 236.55 -37.62 Q 235.44 -36.49 235.44 -34.91 L 235.44 -34.91 L 235.44 -31.04 L 262.58 -31.04 L 262.58 -19.37 L 235.44 -19.37 L 235.44 -15.47 Q 235.44 -13.89 236.55 -12.74 Q 237.66 -11.6 239.31 -11.6 L 239.31 -11.6 L 262.58 -11.6 L 262.58 0 L 239.31 0 Q 236.07 0 233.26 -1.23 Q 230.45 -2.46 228.38 -4.54 Q 226.3 -6.61 225.07 -9.42 Q 223.84 -12.23 223.84 -15.47 Z M 277.03 0 L 265.43 0 L 265.43 -50.41 L 277.03 -50.41 L 288.67 -50.41 Q 291.9 -50.41 294.71 -49.18 Q 297.53 -47.95 299.62 -45.86 Q 301.71 -43.77 302.94 -40.96 Q 304.17 -38.14 304.17 -34.91 L 304.17 -34.91 Q 304.17 -32.17 303.28 -29.69 Q 302.38 -27.21 300.8 -25.21 L 300.8 -25.21 Q 302.38 -23.2 303.28 -20.71 Q 304.17 -18.21 304.17 -15.47 L 304.17 -15.47 L 304.17 0 L 292.57 0 L 292.57 -15.47 Q 292.57 -17.12 291.46 -18.25 Q 290.36 -19.37 288.67 -19.37 L 288.67 -19.37 L 277.03 -19.37 L 277.03 0 Z M 277.03 -38.74 L 277.03 -31.04 L 288.67 -31.04 Q 290.32 -31.04 291.45 -32.15 Q 292.57 -33.26 292.57 -34.91 L 292.57 -34.91 Q 292.57 -36.49 291.46 -37.62 Q 290.36 -38.74 288.67 -38.74 L 288.67 -38.74 L 277.03 -38.74 Z" stroke-linecap="round" />
</g>
</svg>